:SAMPLES-PER-SECOND 30
:FULLY-SPECIFIED
:DEGREES
123
root  47.2727 40.6259 2.37475 146.119 88.6337 147.53
RightUpLeg  -1.70436 -8.5464 -6.67105
RightLeg  5.03513 1.03775 3.37134
RightFoot  0.51423 0.0617091 -0.542059
RightToes  -2.9104e-010 0 -3.6325e-017
Spine  3.63104 4.16437 8.46191
Spine1  14.7473 8.47732 -11.7624
HEad  -18.2117 -5.13993 0.920956
LeftShoulder1  9.46872 -14.1767 -46.7273
LeftArm  -10.695 22.7482 -27.6586
LeftForeArm  24.4977 -13.5391 -4.49466
LeftHand  -0.244104 0.0205437 5.32207
RightShoulder  5.72247 10.9658 33.6007
RightArm  18.689 39.8712 27.4786
RightForeArm  -50.9528 39.5225 11.4879
RightHand  -2.02439 6.32297 -20.1736
LeftUpLeg  0.627517 3.50586 1.06505
LeftLeg  1.83003 7.28239 -3.1673
LeftFoot  0.2213 -0.200166 1.96398
LeftToes  1.09107e-011 -5.80176e-011 5.60941e-012
124
root  47.3515 40.6269 2.40584 146.322 88.595 147.778
RightUpLeg  -1.54042 -8.54805 -6.66439
RightLeg  5.11008 0.987224 3.37006
RightFoot  0.312304 0.0641766 -0.598925
RightToes  -2.9104e-010 0 -3.6325e-017
Spine  3.61687 4.24013 8.49738
Spine1  14.8645 8.45037 -11.3844
HEad  -17.805 -4.83396 0.180659
LeftShoulder1  9.46367 -14.14 -46.8012
LeftArm  -10.4813 21.9687 -27.7892
LeftForeArm  24.741 -13.8507 -4.49424
LeftHand  -0.244104 0.0205437 5.32207
RightShoulder  5.6921 10.8781 33.6299
RightArm  18.2919 39.6143 27.0989
RightForeArm  -50.2781 40.3932 11.7851
RightHand  -1.97706 6.12695 -20.0421
LeftUpLeg  0.84769 3.5441 1.11975
LeftLeg  1.76312 7.17401 -3.17721
LeftFoot  0.0993558 -0.188295 1.87385
LeftToes  1.09107e-011 -5.80176e-011 5.60941e-012
125
root  47.4066 40.6248 2.43055 147.899 88.5063 149.421
RightUpLeg  -1.36693 -8.60196 -6.69111
RightLeg  5.14316 0.945502 3.41115
RightFoot  0.137612 0.0660614 -0.648823
RightToes  -2.9104e-010 0 -3.6325e-017
Spine  3.63927 4.23029 8.50483
Spine1  14.9767 8.35077 -11.0575
HEad  -17.3279 -4.3207 -0.301416
LeftShoulder1  9.43746 -14.1334 -46.6865
LeftArm  -10.2587 20.7194 -27.8556
LeftForeArm  25.222 -13.9893 -4.52262
LeftHand  -0.244104 0.0205437 5.32207
RightShoulder  5.56435 10.6562 33.3508
RightArm  16.5254 39.3468 27.188
RightForeArm  -47.8023 42.1345 12.3803
RightHand  -2.05129 6.34276 -20.3917
LeftUpLeg  0.980139 3.5618 1.1624
LeftLeg  1.8151 7.00257 -3.15899
LeftFoot  -0.00997864 -0.174896 1.7637
LeftToes  1.09107e-011 -5.80176e-011 5.60941e-012
126
root  47.4521 40.6233 2.45515 150.195 88.3271 151.732
RightUpLeg  -1.26222 -8.68496 -6.73957
RightLeg  5.18875 0.868588 3.46052
RightFoot  0.0277654 0.069971 -0.730554
RightToes  -2.9104e-010 0 -3.6325e-017
Spine  3.6045 4.03729 8.49874
Spine1  15.0327 8.13341 -11.0018
HEad  -16.8593 -3.27873 -0.707457
LeftShoulder1  9.35147 -14.14 -46.2314
LeftArm  -10.0581 19.6155 -27.9357
LeftForeArm  25.3953 -14.815 -4.40894
LeftHand  -0.244104 0.0205437 5.32207
RightShoulder  5.50378 10.5283 33.278
RightArm  12.6434 38.7454 27.7426
RightForeArm  -43.7497 45.117 13.4955
RightHand  -2.28761 6.99646 -21.513
LeftUpLeg  1.02783 3.54164 1.16665
LeftLeg  1.86959 6.79708 -3.13909
LeftFoot  -0.0880586 -0.163687 1.66709
LeftToes  1.09107e-011 -5.80176e-011 5.60941e-012
127
root  47.495 40.6237 2.4844 152.061 88.1467 153.574
RightUpLeg  -1.20599 -8.71309 -6.75
RightLeg  5.2464 0.721239 3.46069
RightFoot  -0.0924417 0.0717672 -0.778123
RightToes  -2.9104e-010 0 -3.6325e-017
Spine  3.4813 3.76318 8.35955
Spine1  15.1024 7.8043 -10.8935
HEad  -16.345 -1.60491 -1.45666
LeftShoulder1  9.24532 -14.1069 -45.7784
LeftArm  -9.9682 18.6903 -27.8754
LeftForeArm  25.2077 -16.5069 -4.10493
LeftHand  -0.244104 0.0205437 5.32207
RightShoulder  5.52582 10.5274 33.4368
RightArm  7.32181 37.7939 28.6872
RightForeArm  -38.8843 49.4522 15.4001
RightHand  -2.39064 7.12958 -22.2179
LeftUpLeg  1.03435 3.54398 1.18781
LeftLeg  1.90577 6.58045 -3.14906
LeftFoot  -0.14046 -0.156988 1.60984
LeftToes  1.09107e-011 -5.80176e-011 5.60941e-012
128
root  47.5263 40.6231 2.51847 154.48 88.0121 155.941
RightUpLeg  -1.17007 -8.66992 -6.6845
RightLeg  5.24483 0.518785 3.43351
RightFoot  -0.238423 0.067993 -0.736111
RightToes  -2.9104e-010 0 -3.6325e-017
Spine  3.30926 3.50865 7.90688
Spine1  15.2207 7.31183 -10.238
HEad  -15.6869 0.802626 -2.62795
LeftShoulder1  9.20016 -14.0269 -45.7624
LeftArm  -10.0712 17.7492 -27.4681
LeftForeArm  24.7747 -18.7257 -3.76219
LeftHand  -0.244104 0.0205437 5.32207
RightShoulder  5.4997 10.4528 33.4599
RightArm  2.39499 36.9994 30.2242
RightForeArm  -34.5558 54.2188 18.0083
RightHand  -2.24919 6.44949 -22.1006
LeftUpLeg  0.957297 3.61544 1.29163
LeftLeg  2.01943 6.29954 -3.18509
LeftFoot  -0.219634 -0.148641 1.54047
LeftToes  1.09107e-011 -5.80176e-011 5.60941e-012
129
root  47.5294 40.6196 2.55084 157.068 87.9537 158.456
RightUpLeg  -1.21188 -8.60169 -6.56538
RightLeg  5.22421 0.374591 3.42372
RightFoot  -0.331618 0.0637461 -0.681793
RightToes  -2.9104e-010 0 -3.6325e-017
Spine  3.26405 3.28458 7.32791
Spine1  15.2772 6.7612 -9.31203
HEad  -14.9596 3.95618 -3.78143
LeftShoulder1  9.20879 -13.9573 -45.9952
LeftArm  -10.4327 16.7493 -26.818
LeftForeArm  24.4008 -21.2004 -3.59962
LeftHand  -0.244104 0.0205437 5.32207
RightShoulder  5.43919 10.3203 33.4012
RightArm  -1.08524 36.6681 32.0386
RightForeArm  -31.1591 58.1275 20.7412
RightHand  -2.20392 6.04559 -22.3965
LeftUpLeg  0.767641 3.70884 1.43935
LeftLeg  2.24437 6.04349 -3.20223
LeftFoot  -0.352921 -0.134227 1.41776
LeftToes  1.09107e-011 -5.80176e-011 5.60941e-012
130
root  47.4967 40.6119 2.57172 157.45 88.083 158.773
RightUpLeg  -1.40088 -8.52372 -6.43514
RightLeg  5.30605 0.422321 3.41675
RightFoot  -0.354587 0.0611425 -0.664425
RightToes  -2.9104e-010 0 -3.6325e-017
Spine  3.53182 3.14252 7.10019
Spine1  15.2157 6.48189 -8.90421
HEad  -14.4987 7.44749 -4.59624
LeftShoulder1  9.19288 -13.9449 -45.9469
LeftArm  -11.2754 15.609 -26.2798
LeftForeArm  24.7809 -23.7372 -3.77326
LeftHand  -0.244104 0.0205437 5.32207
RightShoulder  5.51796 10.4077 33.7161
RightArm  -3.39086 36.4493 32.9639
RightForeArm  -27.5788 60.9682 23.1691
RightHand  -2.3918 6.44686 -23.4469
LeftUpLeg  0.522923 3.76388 1.54476
LeftLeg  2.51941 6.05132 -3.17285
LeftFoot  -0.497685 -0.119685 1.29307
LeftToes  1.09107e-011 -5.80176e-011 5.60941e-012
131
root  47.4369 40.6034 2.57751 154.138 88.4273 155.424
RightUpLeg  -1.6858 -8.4244 -6.31644
RightLeg  5.46852 0.653262 3.3875
RightFoot  -0.357356 0.0531431 -0.596681
RightToes  -2.9104e-010 0 -3.6325e-017
Spine  4.09022 3.15788 7.29701
Spine1  15.1411 6.59313 -9.09137
HEad  -14.5296 10.6639 -5.21363
LeftShoulder1  9.16602 -13.9911 -45.683
LeftArm  -12.5217 14.1463 -25.9179
LeftForeArm  26.0728 -26.0707 -4.20176
LeftHand  -0.244104 0.0205437 5.32207
RightShoulder  5.7647 10.7669 34.4391
RightArm  -4.63484 36.1752 32.2399
RightForeArm  -23.9266 62.79 24.9046
RightHand  -2.51957 6.76101 -24.0425
LeftUpLeg  0.297689 3.80333 1.60194
LeftLeg  2.77373 6.3529 -3.1345
LeftFoot  -0.599505 -0.113072 1.24253
LeftToes  1.09107e-011 -5.80176e-011 5.60941e-012
132
root  47.3684 40.5967 2.57417 147.995 88.8106 149.249
RightUpLeg  -1.95653 -8.32413 -6.21
RightLeg  5.5745 0.914358 3.35593
RightFoot  -0.346454 0.0388903 -0.438516
RightToes  -2.9104e-010 0 -3.6325e-017
Spine  4.69806 3.27448 7.44621
Spine1  15.1196 6.78147 -9.14544
HEad  -14.8178 13.329 -5.84051
LeftShoulder1  9.24035 -14.0892 -45.8001
LeftArm  -13.5366 12.4753 -25.3552
LeftForeArm  27.2709 -28.0744 -4.58015
LeftHand  -0.244104 0.0205437 5.32207
RightShoulder  5.9854 11.1025 35.0149
RightArm  -3.92576 36.5392 30.5856
RightForeArm  -23.4683 62.3937 24.4546
RightHand  -2.49815 6.75514 -23.8574
LeftUpLeg  0.0993059 3.88145 1.67072
LeftLeg  2.97535 6.68184 -3.14744
LeftFoot  -0.668197 -0.112123 1.25961
LeftToes  1.09107e-011 -5.80176e-011 5.60941e-012
133
root  47.3074 40.5924 2.56883 138.982 89.1173 140.141
RightUpLeg  -2.22259 -8.24658 -6.10763
RightLeg  5.58278 1.13492 3.34284
RightFoot  -0.289899 0.0273326 -0.301986
RightToes  -2.9104e-010 0 -3.6325e-017
Spine  5.11094 3.38 7.29674
Spine1  15.0833 6.80186 -8.78498
HEad  -15.0073 15.4401 -6.39575
LeftShoulder1  9.44065 -14.2434 -46.4048
LeftArm  -14.1663 11.0327 -24.3907
LeftForeArm  27.8559 -29.8096 -4.94267
LeftHand  -0.244104 0.0205437 5.32207
RightShoulder  6.05119 11.2598 35.0225
RightArm  -0.518147 38.0844 29.2395
RightForeArm  -28.3143 58.7194 21.1657
RightHand  -2.62428 7.29077 -23.9938
LeftUpLeg  -0.112844 3.99436 1.76546
LeftLeg  3.09459 6.89715 -3.22416
LeftFoot  -0.735016 -0.11104 1.26926
LeftToes  1.09107e-011 -5.80176e-011 5.60941e-012
134
root  47.2595 40.5908 2.56215 116.531 89.3696 117.47
RightUpLeg  -2.592 -8.17962 -6.00998
RightLeg  5.54845 1.40409 3.34174
RightFoot  -0.190394 0.023841 -0.259141
RightToes  -2.9104e-010 0 -3.6325e-017
Spine  5.31998 3.48894 7.20649
Spine1  14.9778 6.8594 -8.59348
HEad  -15.1754 16.8266 -6.66774
LeftShoulder1  9.64631 -14.4483 -46.8878
LeftArm  -14.359 10.0029 -23.503
LeftForeArm  28.0076 -31.3261 -5.29016
LeftHand  -0.244104 0.0205437 5.32207
RightShoulder  6.04469 11.4059 34.5836
RightArm  4.37947 39.8477 28.6096
RightForeArm  -34.9739 53.6366 17.6235
RightHand  -2.89258 8.14211 -24.7641
LeftUpLeg  -0.373524 4.08909 1.83538
LeftLeg  3.0919 7.16206 -3.32499
LeftFoot  -0.770874 -0.106944 1.22719
LeftToes  1.09107e-011 -5.80176e-011 5.60941e-012
135
root  47.2194 40.5932 2.55262 79.7143 89.4537 80.3103
RightUpLeg  -3.05681 -8.13012 -5.94418
RightLeg  5.45822 1.67858 3.35876
RightFoot  -0.0730347 0.0209556 -0.223044
RightToes  -2.9104e-010 0 -3.6325e-017
Spine  5.53771 3.6492 7.48208
Spine1  14.8137 7.15146 -8.94303
HEad  -15.6787 17.2339 -6.67097
LeftShoulder1  9.74949 -14.667 -46.8172
LeftArm  -14.2711 9.17119 -23.2644
LeftForeArm  28.3744 -32.5538 -5.56635
LeftHand  -0.244104 0.0205437 5.32207
RightShoulder  6.07058 11.6379 34.1366
RightArm  7.05427 40.0963 28.3542
RightForeArm  -37.8324 51.1792 16.2551
RightHand  -2.94422 8.20857 -25.0665
LeftUpLeg  -0.70371 4.11461 1.83978
LeftLeg  2.96064 7.49903 -3.40553
LeftFoot  -0.710551 -0.101368 1.15773
LeftToes  1.09107e-011 -5.80176e-011 5.60941e-012
136
root  47.186 40.5994 2.54445 80.5121 89.4149 80.6917
RightUpLeg  -3.4556 -8.14104 -5.93478
RightLeg  5.23869 1.63397 3.40991
RightFoot  0.0490981 0.0135859 -0.115699
RightToes  -2.9104e-010 0 -3.6325e-017
Spine  5.88274 3.73096 7.85551
Spine1  14.5907 7.39745 -9.39246
HEad  -16.5212 16.8321 -6.58006
LeftShoulder1  9.76487 -14.8377 -46.4448
LeftArm  -14.0897 8.42863 -23.559
LeftForeArm  29.0842 -33.4658 -5.75182
LeftHand  -0.244104 0.0205437 5.32207
RightShoulder  6.15418 11.7934 34.2739
RightArm  4.72742 38.3443 28.419
RightForeArm  -34.2789 53.293 17.4265
RightHand  -2.70952 7.48884 -24.3785
LeftUpLeg  -1.11809 4.05195 1.79428
LeftLeg  2.75429 7.54877 -3.449
LeftFoot  -0.548304 -0.0968402 1.10063
LeftToes  1.09107e-011 -5.80176e-011 5.60941e-012
